<svg viewBox="0 0 536 180" width="536" height="180" id="fretboard" xmlns:xlink="http://www.w3.org/1999/xlink" xmlns="http://www.w3.org/2000/svg"><title>q-interval-2str-7fret-2str-1fret.svg</title><defs></defs><rect id="fret_0" x="60" y="15" width="10" height="125" fill="black"></rect><rect id="fret_1" x="105" y="15" width="3" height="125" fill="black"></rect><rect id="fret_2" x="143" y="15" width="3" height="125" fill="black"></rect><rect id="fret_3" x="181" y="15" width="3" height="125" fill="black"></rect><rect id="fret_4" x="219" y="15" width="3" height="125" fill="black"></rect><rect id="fret_5" x="257" y="15" width="3" height="125" fill="black"></rect><rect id="fret_6" x="295" y="15" width="3" height="125" fill="black"></rect><rect id="fret_7" x="333" y="15" width="3" height="125" fill="black"></rect><rect id="fret_8" x="371" y="15" width="3" height="125" fill="black"></rect><rect id="fret_9" x="409" y="15" width="3" height="125" fill="black"></rect><rect id="fret_10" x="447" y="15" width="3" height="125" fill="black"></rect><rect id="fret_11" x="485" y="15" width="3" height="125" fill="black"></rect><rect id="fret_12" x="523" y="15" width="3" height="125" fill="black"></rect><text id="fret_number_0" x="42.5" y="165" text-anchor="middle" dominant-baseline="middle" font-size="12" fill="black">Open</text><text id="fret_number_1" x="87.5" y="165" text-anchor="middle" dominant-baseline="middle" font-size="12" fill="black">1</text><text id="fret_number_2" x="125.5" y="165" text-anchor="middle" dominant-baseline="middle" font-size="12" fill="black">2</text><text id="fret_number_3" x="163.5" y="165" text-anchor="middle" dominant-baseline="middle" font-size="12" fill="black">3</text><text id="fret_number_4" x="201.5" y="165" text-anchor="middle" dominant-baseline="middle" font-size="12" fill="black">4</text><text id="fret_number_5" x="239.5" y="165" text-anchor="middle" dominant-baseline="middle" font-size="12" fill="black">5</text><text id="fret_number_6" x="277.5" y="165" text-anchor="middle" dominant-baseline="middle" font-size="12" fill="black">6</text><text id="fret_number_7" x="315.5" y="165" text-anchor="middle" dominant-baseline="middle" font-size="12" fill="black">7</text><text id="fret_number_8" x="353.5" y="165" text-anchor="middle" dominant-baseline="middle" font-size="12" fill="black">8</text><text id="fret_number_9" x="391.5" y="165" text-anchor="middle" dominant-baseline="middle" font-size="12" fill="black">9</text><text id="fret_number_10" x="429.5" y="165" text-anchor="middle" dominant-baseline="middle" font-size="12" fill="black">10</text><text id="fret_number_11" x="467.5" y="165" text-anchor="middle" dominant-baseline="middle" font-size="12" fill="black">11</text><text id="fret_number_12" x="505.5" y="165" text-anchor="middle" dominant-baseline="middle" font-size="12" fill="black">12</text><circle id="dot_3" cx="163.5" cy="77.5" r="8" fill="#C0C0C0"></circle><circle id="dot_5" cx="239.5" cy="77.5" r="8" fill="#C0C0C0"></circle><circle id="dot_7" cx="315.5" cy="77.5" r="8" fill="#C0C0C0"></circle><circle id="dot_9" cx="391.5" cy="77.5" r="8" fill="#C0C0C0"></circle><g><circle id="dot_0_12" cx="505.5" cy="46.25" r="8" fill="#C0C0C0"></circle><circle id="dot_1_12" cx="505.5" cy="108.75" r="8" fill="#C0C0C0"></circle></g><rect id="string_1" x="25" y="14.5" width="501" height="1" fill="black"></rect><rect id="string_2" x="25" y="39.425" width="501" height="1.15" fill="black"></rect><rect id="string_3" x="25" y="64.33875" width="501" height="1.3224999999999998" fill="black"></rect><rect id="string_4" x="25" y="89.2395625" width="501" height="1.5208749999999998" fill="black"></rect><rect id="string_5" x="25" y="114.125496875" width="501" height="1.7490062499999994" fill="black"></rect><rect id="string_6" x="25" y="138.99432140625" width="501" height="2.0113571874999994" fill="black"></rect><text id="string_tuning_1" x="12.5" y="16.5" text-anchor="middle" dominant-baseline="middle" font-size="16" fill="black">E</text><text id="string_tuning_2" x="12.5" y="41.425" text-anchor="middle" dominant-baseline="middle" font-size="16" fill="black">B</text><text id="string_tuning_3" x="12.5" y="66.33875" text-anchor="middle" dominant-baseline="middle" font-size="16" fill="black">G</text><text id="string_tuning_4" x="12.5" y="91.2395625" text-anchor="middle" dominant-baseline="middle" font-size="16" fill="black">D</text><text id="string_tuning_5" x="12.5" y="116.125496875" text-anchor="middle" dominant-baseline="middle" font-size="16" fill="black">A</text><text id="string_tuning_6" x="12.5" y="140.99432140625" text-anchor="middle" dominant-baseline="middle" font-size="16" fill="black">E</text><text id="string_fingering_1_0" x="546" y="14.5" text-anchor="middle" dominant-baseline="middle" font-size="12" fill="black"></text><text id="string_fingering_2_0" x="546" y="39.425" text-anchor="middle" dominant-baseline="middle" font-size="12" fill="black"></text><text id="string_fingering_3_0" x="546" y="64.33875" text-anchor="middle" dominant-baseline="middle" font-size="12" fill="black"></text><text id="string_fingering_4_0" x="546" y="89.2395625" text-anchor="middle" dominant-baseline="middle" font-size="12" fill="black"></text><text id="string_fingering_5_0" x="546" y="114.125496875" text-anchor="middle" dominant-baseline="middle" font-size="12" fill="black"></text><text id="string_fingering_6_0" x="546" y="138.99432140625" text-anchor="middle" dominant-baseline="middle" font-size="12" fill="black"></text><g><rect x="304.5" y="29" width="22" height="22" rx="4" fill="#FFCC00" stroke="#FFCC00" stroke-width="0px"></rect><text x="315.5" y="41" text-anchor="middle" dominant-baseline="middle" font-size="15" font-weight="bold" fill="black" stroke="#D3D3D3" stroke-width="1.5px" paint-order="stroke"></text></g><g><rect x="76.5" y="29" width="22" height="22" rx="22" fill="#FFCC00" stroke="#FFCC00" stroke-width="0px"></rect><text x="87.5" y="41" text-anchor="middle" dominant-baseline="middle" font-size="15" font-weight="bold" fill="black" stroke="#D3D3D3" stroke-width="1.5px" paint-order="stroke"></text></g></svg>