<svg viewBox="0 0 266 180" width="266" height="180" id="fretboard" xmlns:xlink="http://www.w3.org/1999/xlink" xmlns="http://www.w3.org/2000/svg"><title>q-fretboard-section-6frets</title><defs></defs><rect id="fret_0" x="25" y="15" width="3" height="125" fill="black"></rect><rect id="fret_1" x="63" y="15" width="3" height="125" fill="black"></rect><rect id="fret_2" x="101" y="15" width="3" height="125" fill="black"></rect><rect id="fret_3" x="139" y="15" width="3" height="125" fill="black"></rect><rect id="fret_4" x="177" y="15" width="3" height="125" fill="black"></rect><rect id="fret_5" x="215" y="15" width="3" height="125" fill="black"></rect><rect id="fret_6" x="253" y="15" width="3" height="125" fill="black"></rect><rect id="string_1" x="25" y="14.5" width="231" height="1" fill="black"></rect><rect id="string_2" x="25" y="39.425" width="231" height="1.15" fill="black"></rect><rect id="string_3" x="25" y="64.33875" width="231" height="1.3224999999999998" fill="black"></rect><rect id="string_4" x="25" y="89.2395625" width="231" height="1.5208749999999998" fill="black"></rect><rect id="string_5" x="25" y="114.125496875" width="231" height="1.7490062499999994" fill="black"></rect><rect id="string_6" x="25" y="138.99432140625" width="231" height="2.0113571874999994" fill="black"></rect><text id="string_tuning_1" x="12.5" y="16.5" text-anchor="middle" dominant-baseline="middle" font-size="16" fill="black">E</text><text id="string_tuning_2" x="12.5" y="41.425" text-anchor="middle" dominant-baseline="middle" font-size="16" fill="black">B</text><text id="string_tuning_3" x="12.5" y="66.33875" text-anchor="middle" dominant-baseline="middle" font-size="16" fill="black">G</text><text id="string_tuning_4" x="12.5" y="91.2395625" text-anchor="middle" dominant-baseline="middle" font-size="16" fill="black">D</text><text id="string_tuning_5" x="12.5" y="116.125496875" text-anchor="middle" dominant-baseline="middle" font-size="16" fill="black">A</text><text id="string_tuning_6" x="12.5" y="140.99432140625" text-anchor="middle" dominant-baseline="middle" font-size="16" fill="black">E</text></svg>