<svg viewBox="0 0 266 205" width="266" height="205" id="fretboard" xmlns:xlink="http://www.w3.org/1999/xlink" xmlns="http://www.w3.org/2000/svg"><title>q-scale-minor-pentatonic-box4-3str</title><defs></defs><text id="label" x="25" y="15" font-size="12" font-weight="bold" fill="black">Minor Pentatonic, Root on 3d string</text><rect id="fret_10" x="25" y="40" width="3" height="125" fill="black"></rect><rect id="fret_11" x="63" y="40" width="3" height="125" fill="black"></rect><rect id="fret_12" x="101" y="40" width="3" height="125" fill="black"></rect><rect id="fret_13" x="139" y="40" width="3" height="125" fill="black"></rect><rect id="fret_14" x="177" y="40" width="3" height="125" fill="black"></rect><rect id="fret_15" x="215" y="40" width="3" height="125" fill="black"></rect><rect id="fret_16" x="253" y="40" width="3" height="125" fill="black"></rect><rect id="string_1" x="25" y="39.5" width="231" height="1" fill="black"></rect><rect id="string_2" x="25" y="64.425" width="231" height="1.15" fill="black"></rect><rect id="string_3" x="25" y="89.33875" width="231" height="1.3224999999999998" fill="black"></rect><rect id="string_4" x="25" y="114.2395625" width="231" height="1.5208749999999998" fill="black"></rect><rect id="string_5" x="25" y="139.125496875" width="231" height="1.7490062499999994" fill="black"></rect><rect id="string_6" x="25" y="163.99432140625" width="231" height="2.0113571874999994" fill="black"></rect><text id="string_tuning_1" x="12.5" y="41.5" text-anchor="middle" dominant-baseline="middle" font-size="16" fill="black">E</text><text id="string_tuning_2" x="12.5" y="66.425" text-anchor="middle" dominant-baseline="middle" font-size="16" fill="black">B</text><text id="string_tuning_3" x="12.5" y="91.33875" text-anchor="middle" dominant-baseline="middle" font-size="16" fill="black">G</text><text id="string_tuning_4" x="12.5" y="116.2395625" text-anchor="middle" dominant-baseline="middle" font-size="16" fill="black">D</text><text id="string_tuning_5" x="12.5" y="141.125496875" text-anchor="middle" dominant-baseline="middle" font-size="16" fill="black">A</text><text id="string_tuning_6" x="12.5" y="165.99432140625" text-anchor="middle" dominant-baseline="middle" font-size="16" fill="black">E</text><text id="string_fingering_1_0" x="276" y="39.5" text-anchor="middle" dominant-baseline="middle" font-size="12" fill="black"></text><text id="string_fingering_2_0" x="276" y="64.425" text-anchor="middle" dominant-baseline="middle" font-size="12" fill="black"></text><text id="string_fingering_3_0" x="276" y="89.33875" text-anchor="middle" dominant-baseline="middle" font-size="12" fill="black"></text><text id="string_fingering_4_0" x="276" y="114.2395625" text-anchor="middle" dominant-baseline="middle" font-size="12" fill="black"></text><text id="string_fingering_5_0" x="276" y="139.125496875" text-anchor="middle" dominant-baseline="middle" font-size="12" fill="black"></text><text id="string_fingering_6_0" x="276" y="163.99432140625" text-anchor="middle" dominant-baseline="middle" font-size="12" fill="black"></text><g><rect x="148.5" y="79" width="22" height="22" rx="4" fill="#FFCC00" stroke="#FFCC00" stroke-width="0px"></rect><text x="159.5" y="91" text-anchor="middle" dominant-baseline="middle" font-size="15" font-weight="bold" fill="black" stroke="#D3D3D3" stroke-width="1.5px" paint-order="stroke">1</text></g></svg>